<svg width="189" height="57" viewBox="0 0 189 57" fill="none" xmlns="http://www.w3.org/2000/svg">
<path d="M11.484 45.6V54H10.284V50.256H5.46V54H4.26V45.6H5.46V49.212H10.284V45.6H11.484ZM26.7903 54.096C25.9423 54.096 25.1783 53.912 24.4983 53.544C23.8183 53.168 23.2823 52.652 22.8903 51.996C22.5063 51.34 22.3143 50.608 22.3143 49.8C22.3143 48.992 22.5063 48.26 22.8903 47.604C23.2823 46.948 23.8183 46.436 24.4983 46.068C25.1783 45.692 25.9423 45.504 26.7903 45.504C27.6303 45.504 28.3903 45.692 29.0703 46.068C29.7503 46.436 30.2823 46.948 30.6663 47.604C31.0503 48.252 31.2423 48.984 31.2423 49.8C31.2423 50.616 31.0503 51.352 30.6663 52.008C30.2823 52.656 29.7503 53.168 29.0703 53.544C28.3903 53.912 27.6303 54.096 26.7903 54.096ZM26.7903 53.028C27.4063 53.028 27.9583 52.888 28.4463 52.608C28.9423 52.328 29.3303 51.944 29.6103 51.456C29.8983 50.96 30.0423 50.408 30.0423 49.8C30.0423 49.192 29.8983 48.644 29.6103 48.156C29.3303 47.66 28.9423 47.272 28.4463 46.992C27.9583 46.712 27.4063 46.572 26.7903 46.572C26.1743 46.572 25.6143 46.712 25.1103 46.992C24.6143 47.272 24.2223 47.66 23.9343 48.156C23.6543 48.644 23.5143 49.192 23.5143 49.8C23.5143 50.408 23.6543 50.96 23.9343 51.456C24.2223 51.944 24.6143 52.328 25.1103 52.608C25.6143 52.888 26.1743 53.028 26.7903 53.028ZM47.5032 47.412C46.6872 46.948 45.8152 46.672 44.8872 46.584V54H43.6992V46.584C42.7632 46.672 41.8872 46.948 41.0712 47.412L40.6512 46.464C41.7232 45.824 42.9312 45.504 44.2752 45.504C45.6352 45.504 46.8512 45.824 47.9232 46.464L47.5032 47.412ZM64.2659 53.124C63.9059 53.428 63.4339 53.668 62.8499 53.844C62.2659 54.012 61.6299 54.096 60.9419 54.096C60.1739 54.096 59.5219 53.996 58.9859 53.796C58.4499 53.588 58.0459 53.304 57.7739 52.944C57.5019 52.584 57.3659 52.168 57.3659 51.696C57.3659 51.216 57.5019 50.804 57.7739 50.46C58.0539 50.108 58.4139 49.856 58.8539 49.704C58.5019 49.544 58.2259 49.304 58.0259 48.984C57.8259 48.656 57.7259 48.28 57.7259 47.856C57.7259 47.416 57.8499 47.02 58.0979 46.668C58.3539 46.316 58.7379 46.036 59.2499 45.828C59.7619 45.612 60.3859 45.504 61.1219 45.504C61.6419 45.504 62.1459 45.56 62.6339 45.672C63.1299 45.784 63.5579 45.944 63.9179 46.152L63.5699 47.112C62.8499 46.728 62.0499 46.536 61.1699 46.536C60.4419 46.536 59.8859 46.668 59.5019 46.932C59.1179 47.188 58.9259 47.524 58.9259 47.94C58.9259 48.356 59.0739 48.676 59.3699 48.9C59.6659 49.124 60.0899 49.236 60.6419 49.236H62.8019V50.268H60.5939C59.9619 50.268 59.4659 50.38 59.1059 50.604C58.7459 50.828 58.5659 51.164 58.5659 51.612C58.5659 52.068 58.7699 52.424 59.1779 52.68C59.5859 52.936 60.1939 53.064 61.0019 53.064C61.5619 53.064 62.0939 52.988 62.5979 52.836C63.1099 52.676 63.5299 52.46 63.8579 52.188L64.2659 53.124ZM74.7366 45.6H75.9366V52.956H80.4846V54H74.7366V45.6Z" fill="#F9AD81"/>
<path d="M14.112 12.716C11.808 12.716 10.068 13.244 8.892 14.3C7.74 15.332 7.164 16.844 7.164 18.836V21.716H18.684V24.812H7.164V35H3.564V18.8C3.564 15.896 4.476 13.628 6.3 11.996C8.148 10.34 10.716 9.512 14.004 9.512C15.444 9.512 16.788 9.68 18.036 10.016C19.284 10.328 20.364 10.796 21.276 11.42L20.088 14.408C18.48 13.28 16.488 12.716 14.112 12.716ZM28.852 9.8H32.452V31.868H46.096V35H28.852V9.8ZM64.386 35.288C61.842 35.288 59.55 34.736 57.51 33.632C55.47 32.504 53.862 30.956 52.686 28.988C51.534 27.02 50.958 24.824 50.958 22.4C50.958 19.976 51.534 17.78 52.686 15.812C53.862 13.844 55.47 12.308 57.51 11.204C59.55 10.076 61.842 9.512 64.386 9.512C66.906 9.512 69.186 10.076 71.226 11.204C73.266 12.308 74.862 13.844 76.014 15.812C77.166 17.756 77.742 19.952 77.742 22.4C77.742 24.848 77.166 27.056 76.014 29.024C74.862 30.968 73.266 32.504 71.226 33.632C69.186 34.736 66.906 35.288 64.386 35.288ZM64.386 32.084C66.234 32.084 67.89 31.664 69.354 30.824C70.842 29.984 72.006 28.832 72.846 27.368C73.71 25.88 74.142 24.224 74.142 22.4C74.142 20.576 73.71 18.932 72.846 17.468C72.006 15.98 70.842 14.816 69.354 13.976C67.89 13.136 66.234 12.716 64.386 12.716C62.538 12.716 60.858 13.136 59.346 13.976C57.858 14.816 56.682 15.98 55.818 17.468C54.978 18.932 54.558 20.576 54.558 22.4C54.558 24.224 54.978 25.88 55.818 27.368C56.682 28.832 57.858 29.984 59.346 30.824C60.858 31.664 62.538 32.084 64.386 32.084ZM103.332 35L97.8964 27.26C97.2244 27.308 96.6964 27.332 96.3124 27.332H90.0844V35H86.4844V9.8H96.3124C99.5764 9.8 102.144 10.58 104.016 12.14C105.888 13.7 106.824 15.848 106.824 18.584C106.824 20.528 106.344 22.184 105.384 23.552C104.424 24.92 103.056 25.916 101.28 26.54L107.256 35H103.332ZM96.2044 24.272C98.4844 24.272 100.224 23.78 101.424 22.796C102.624 21.812 103.224 20.408 103.224 18.584C103.224 16.76 102.624 15.368 101.424 14.408C100.224 13.424 98.4844 12.932 96.2044 12.932H90.0844V24.272H96.2044ZM122.109 12.932V31.868H126.969V35H113.649V31.868H118.509V12.932H113.649V9.8H126.969V12.932H122.109ZM145.367 9.8C148.631 9.8 151.199 10.58 153.071 12.14C154.943 13.7 155.879 15.848 155.879 18.584C155.879 21.32 154.943 23.468 153.071 25.028C151.199 26.588 148.631 27.368 145.367 27.368H139.139V35H135.539V9.8H145.367ZM145.259 24.236C147.539 24.236 149.279 23.756 150.479 22.796C151.679 21.812 152.279 20.408 152.279 18.584C152.279 16.76 151.679 15.368 150.479 14.408C149.279 13.424 147.539 12.932 145.259 12.932H139.139V24.236H145.259ZM174.464 9.512C177.824 9.512 180.476 10.496 182.42 12.464C184.364 14.408 185.336 17.204 185.336 20.852V35H181.736V28.052H167.192V35H163.664V20.852C163.664 17.204 164.636 14.408 166.58 12.464C168.524 10.496 171.152 9.512 174.464 9.512ZM181.736 24.92V20.528C181.736 17.96 181.088 16.016 179.792 14.696C178.52 13.376 176.744 12.716 174.464 12.716C172.184 12.716 170.396 13.376 169.1 14.696C167.828 16.016 167.192 17.96 167.192 20.528V24.92H181.736Z" fill="#F9AD81"/>
</svg>
